:SAMPLES-PER-SECOND 30
:FULLY-SPECIFIED
:DEGREES
185
root  -1.24905 32.5222 5.28942 131.276 -71.0912 -135.597
RightUpLeg  -32.803 -27.699 -13.6773
RightLeg  53.3735 17.067 22.7306
RightFoot  14.9862 -5.89107 25.2618
RightToes  -6.40286e-010 0 -3.6325e-017
Spine  22.6322 -4.98731 -20.0366
Spine1  -12.1546 -7.93354 8.76957
HEad  -5.40299 30.2251 25.2527
LeftShoulder1  -0.197133 4.75176 -8.33146
LeftArm  -55.5841 -0.751039 -18.9855
LeftForeArm  -52.8754 -26.8944 -7.79759
LeftHand  1.2568 8.6528 41.9506
RightShoulder  -0.0819966 -3.97923 9.1976
RightArm  15.7463 -37.0834 14.5213
RightForeArm  56.7664 67.1295 20.5619
RightHand  -1.77971 -0.561341 -41.2926
LeftUpLeg  -1.63661 2.40037 53.5805
LeftLeg  37.9623 19.9193 16.2464
LeftFoot  9.14735 8.31193 -44.3857
LeftToes  -2.09187e-010 -4.93792e-011 -8.21189e-011
186
root  -1.55915 33.1861 3.93473 134.46 -69.8574 -138.709
RightUpLeg  -31.7097 -28.4875 -11.0244
RightLeg  53.449 17.8063 23.6561
RightFoot  12.4131 -4.7846 22.8756
RightToes  -6.40286e-010 0 -3.6325e-017
Spine  22.2464 -6.76049 -22.9747
Spine1  -14.4798 -10.0064 12.0278
HEad  0.205969 33.9493 27.9133
LeftShoulder1  -0.334546 6.01115 -5.47662
LeftArm  -57.4978 2.49947 -17.1767
LeftForeArm  -54.2925 -25.9727 -7.60714
LeftHand  1.29516 8.85573 40.8299
RightShoulder  -0.211015 -4.8694 7.69224
RightArm  15.3197 -36.7667 14.5225
RightForeArm  58.4558 68.1341 21.6067
RightHand  -1.76989 -0.526612 -40.8139
LeftUpLeg  3.00737 -0.825059 53.7591
LeftLeg  30.8975 26.9119 16.5965
LeftFoot  20.0898 10.883 -38.0028
LeftToes  -2.09187e-010 -4.93792e-011 -8.21189e-011
187
root  -1.84848 33.6839 2.69701 138.724 -69.6091 -142.754
RightUpLeg  -30.889 -29.57 -9.69701
RightLeg  53.5045 17.4944 23.3331
RightFoot  9.16253 -3.75433 20.8963
RightToes  -6.40286e-010 0 -3.6325e-017
Spine  22.4182 -8.33182 -25.4032
Spine1  -18.0169 -11.6444 14.375
HEad  5.34751 36.8255 30.0674
LeftShoulder1  -0.337173 6.60601 -2.64905
LeftArm  -55.841 5.64756 -15.842
LeftForeArm  -48.5009 -24.0478 -6.89274
LeftHand  1.18515 8.48446 41.7639
RightShoulder  -0.350879 -6.01405 6.12731
RightArm  12.9667 -36.2037 14.8247
RightForeArm  58.57 69.0691 22.8943
RightHand  -1.79171 -0.435775 -40.576
LeftUpLeg  6.90265 -1.18386 53.2082
LeftLeg  23.4904 31.8427 14.3691
LeftFoot  29.3414 11.2394 -30.1847
LeftToes  -2.09187e-010 -4.93792e-011 -8.21189e-011
188
root  -2.0969 33.9442 1.7099 143.459 -70.084 -147.088
RightUpLeg  -29.7482 -29.5572 -9.85472
RightLeg  53.0306 17.0364 22.4334
RightFoot  3.33311 -2.77796 21.6573
RightToes  -6.40286e-010 0 -3.6325e-017
Spine  22.8649 -9.45687 -26.9443
Spine1  -21.8319 -12.5706 16.6686
HEad  9.1185 39.175 30.5474
LeftShoulder1  -0.26827 6.46756 -0.625947
LeftArm  -48.2982 8.11292 -15.1224
LeftForeArm  -35.3467 -20.7507 -5.33652
LeftHand  1.03188 7.92185 43.9095
RightShoulder  -0.457586 -7.1142 4.67389
RightArm  8.79134 -35.4101 14.9787
RightForeArm  56.6435 69.9119 24.4973
RightHand  -1.81033 -0.386327 -40.5902
LeftUpLeg  9.51068 1.66967 52.4159
LeftLeg  17.139 32.3832 11.4959
LeftFoot  34.3177 11.1125 -26.5131
LeftToes  -2.09187e-010 -4.93792e-011 -8.21189e-011
189
root  -2.29477 34.0011 1.027 147.991 -70.9498 -151.051
RightUpLeg  -28.2644 -27.8477 -10.9575
RightLeg  51.9488 16.8966 21.4766
RightFoot  -4.79318 -1.45163 24.5311
RightToes  -6.40286e-010 0 -3.6325e-017
Spine  23.0302 -10.0953 -27.5398
Spine1  -24.3614 -12.846 19.5418
HEad  10.7144 41.3173 28.8229
LeftShoulder1  -0.202181 5.92188 0.117249
LeftArm  -38.2629 10.3398 -14.9965
LeftForeArm  -17.1138 -17.1961 -4.5878
LeftHand  1.29774 8.36064 46.688
RightShoulder  -0.504691 -7.82553 3.56129
RightArm  3.3168 -33.8205 14.6202
RightForeArm  52.7186 70.5179 26.1964
RightHand  -1.83923 -0.309124 -40.6091
LeftUpLeg  10.4959 7.40974 51.8138
LeftLeg  13.176 27.8031 10.066
LeftFoot  35.7364 11.827 -27.291
LeftToes  -2.09187e-010 -4.93792e-011 -8.21189e-011
